<?xml version="1.0" standalone="no"?>
<!DOCTYPE svg PUBLIC "-//W3C//DTD SVG 20010904//EN"
 "http://www.w3.org/TR/2001/REC-SVG-20010904/DTD/svg10.dtd">
<svg version="1.0" xmlns="http://www.w3.org/2000/svg"
 width="200.000000pt" height="200.000000pt" viewBox="0 0 200.000000 200.000000"
 preserveAspectRatio="xMidYMid meet">
<metadata>
Created by potrace 1.11, written by Peter Selinger 2001-2013
</metadata>
<g transform="translate(0.000000,200.000000) scale(0.100000,-0.100000)"
fill="#000000" stroke="none">
<path d="M1307 1939 c-179 -42 -370 -236 -506 -514 -107 -217 -167 -426 -196
-680 -9 -74 -12 -93 -20 -105 -3 -5 -67 -50 -143 -101 -75 -50 -144 -100 -154
-110 -35 -40 -9 -138 46 -174 23 -15 27 -15 64 4 23 11 70 41 105 66 36 25 67
45 70 45 2 0 5 -18 5 -39 1 -76 33 -162 75 -202 47 -45 97 -59 198 -54 118 5
150 10 269 40 149 38 310 96 336 120 21 20 34 54 34 90 0 91 -60 129 -157 99
-26 -9 -55 -17 -63 -19 -8 -2 -72 -19 -141 -39 -157 -46 -163 -47 -222 -47
-74 0 -79 8 -73 120 2 53 5 97 5 98 1 1 22 15 49 31 114 71 295 236 403 368
197 241 310 491 312 694 1 52 -1 109 -4 125 -31 148 -143 219 -292 184z m34
-225 c19 -23 21 -141 4 -205 -14 -52 -83 -199 -128 -270 -86 -137 -332 -439
-359 -439 -5 0 -7 3 -5 8 3 4 8 34 11 67 18 161 98 415 178 564 116 219 246
339 299 275z"/>
</g>
</svg>
